<?xml version="1.0" encoding="UTF-8" standalone="no"?>
<!-- Created with Inkscape (http://www.inkscape.org/) -->

<svg
   xmlns:dc="http://purl.org/dc/elements/1.1/"
   xmlns:cc="http://creativecommons.org/ns#"
   xmlns:rdf="http://www.w3.org/1999/02/22-rdf-syntax-ns#"
   xmlns:svg="http://www.w3.org/2000/svg"
   xmlns="http://www.w3.org/2000/svg"
   xmlns:sodipodi="http://sodipodi.sourceforge.net/DTD/sodipodi-0.dtd"
   xmlns:inkscape="http://www.inkscape.org/namespaces/inkscape"
   version="1.1"
   id="svg10"
   width="320"
   height="320"
   viewBox="0 0 320 320"
   sodipodi:docname="nipsu_sniff.svg"
   inkscape:version="0.92.2 (5c3e80d, 2017-08-06)">
  <metadata
     id="metadata16">
    <rdf:RDF>
      <cc:Work
         rdf:about="">
        <dc:format>image/svg+xml</dc:format>
        <dc:type
           rdf:resource="http://purl.org/dc/dcmitype/StillImage" />
        <dc:title></dc:title>
      </cc:Work>
    </rdf:RDF>
  </metadata>
  <defs
     id="defs14">
    <marker
       inkscape:stockid="Arrow1Lstart"
       orient="auto"
       refY="0"
       refX="0"
       id="Arrow1Lstart"
       style="overflow:visible"
       inkscape:isstock="true">
      <path
         id="path4521"
         d="M 0,0 5,-5 -12.5,0 5,5 Z"
         style="fill:#000000;fill-opacity:1;fill-rule:evenodd;stroke:#000000;stroke-width:1.00000003pt;stroke-opacity:1"
         transform="matrix(0.8,0,0,0.8,10,0)"
         inkscape:connector-curvature="0" />
    </marker>
  </defs>
  <sodipodi:namedview
     pagecolor="#fffdec"
     bordercolor="#666666"
     borderopacity="1"
     objecttolerance="10"
     gridtolerance="10"
     guidetolerance="10"
     inkscape:pageopacity="1"
     inkscape:pageshadow="2"
     inkscape:window-width="1920"
     inkscape:window-height="1017"
     id="namedview12"
     showgrid="false"
     inkscape:zoom="0.33125"
     inkscape:cx="-559.66859"
     inkscape:cy="549.41737"
     inkscape:window-x="1912"
     inkscape:window-y="-8"
     inkscape:window-maximized="1"
     inkscape:current-layer="layer4" />
  <g
     inkscape:groupmode="layer"
     id="layer3"
     inkscape:label="BaseBrown"
     style="display:inline">
    <path
       style="fill:#b84c1d;fill-opacity:1;stroke:none;stroke-width:1px;stroke-linecap:butt;stroke-linejoin:miter;stroke-opacity:1"
       d="m 217.13515,321.86783 -3.10193,-6.03709 -2.90181,-6.27057 -2.96851,-7.17113 -2.63498,-6.67082 -3.33541,-10.33977 -2.53491,-9.30579 -1.46758,-6.07045 -1.76776,-8.30517 -1.43423,-9.50591 -1.30081,-10.33977 -0.56702,-7.13778 -0.33354,-8.00498 0.0667,-6.9043 0.16677,-8.40523 0.60037,-13.47505 0.50031,-9.83946 0.83386,-9.40585 1.03397,-10.43984 1.66771,-11.0402 1.76777,-9.47256 1.96789,-11.67394 0.73379,-8.53864 0.40025,-10.87344 0.11545,-3.8099 4.88766,1.87536 6.83759,2.23473 7.23784,1.40087 5.70355,0.73379 7.63808,0.33354 9.77275,-0.8005 6.77089,-1.46758 7.10442,-1.93453 7.37125,-3.40212 5.73691,-3.83572 4.5028,-4.8697 4.10255,-5.803612 2.0346,-3.50218 2.73504,-6.170508 1.30081,-5.436717 0.76714,-4.169261 0.50031,-3.068577 1.80112,-5.169885 2.4015,-4.903051 3.53553,-5.269947 3.70231,-4.769635 3.13528,-3.402118 3.2687,-2.634973 1.46758,-0.867207 -0.60037,-0.400249 -8.63871,-0.90056 -9.70604,-0.767145 -9.3725,-0.466957 -9.67269,-0.16677 -10.6066,0.200124 -7.90492,0.833853 -6.33728,1.46758 -5.43672,2.268078 -4.5028,2.301432 -4.13591,2.468203 -4.46945,3.068577 -5.43671,4.23597 -4.56951,3.902429 -3.90243,3.568888 -6.13716,4.903052 -5.7369,5.169884 -4.76964,4.836344 -5.10317,5.536779 -4.60287,-0.433603 -6.00373,-0.233479 -7.60474,-0.06671 -8.47194,0.466957 -1.34814,-0.100697 -0.15279,-4.60223 -0.86721,-5.303301 -1.2341,-5.13653 -1.80112,-4.669573 -2.20137,-4.23597 -2.86845,-4.602865 -2.36814,-3.101931 -3.202,-3.635596 -3.53553,-3.201993 -4.83634,-3.769012 -4.33603,-2.468203 -5.2366,-2.268079 -4.73628,-1.534288 -5.16988,-1.000623 -4.50281,-0.500311 -3.66895,-0.667082 -3.53553,-1.534288 -4.46945,-2.868452 -2.4682,-1.734413 -3.235349,-1.400872 -3.268701,-0.900561 -1.63435,0.133417 -0.767145,0.466957 0.100063,0.73379 1.000622,1.867829 3.568888,3.935783 2.634974,3.402118 1.534288,2.668327 0.93391,3.969137 0.33355,4.80299 0.13341,5.403363 v 4.302678 l -0.53366,4.96976 -0.66709,7.271192 -0.33354,4.035846 -0.13341,5.70355 0.16677,6.003737 0.56702,3.869074 1.13404,3.568888 2.00124,2.835098 3.06858,3.30206 4.23597,3.50218 3.63559,2.33478 4.8697,2.33479 4.40274,1.20075 2.73504,0.50031 1.68876,0.35739 -1.12174,3.41162 -1.1674,4.90305 -0.8672,6.00374 -0.12935,2.86481 -4.80706,0.67072 -5.53678,0.43361 -4.48367,-0.17434 -5.18901,-1.35995 -7.437967,10.40648 1.734413,1.63435 1.300814,3.53553 2.96851,4.0692 3.20199,3.7023 3.66895,3.26871 4.80299,3.80236 4.70293,3.13529 6.80423,4.26932 6.77089,3.60224 5.57013,2.53491 5.40336,2.46821 1.53429,1.20074 0.53367,1.30081 0.10006,4.23597 -0.46696,3.83573 -1.16739,5.16988 -1.66771,6.73753 -2.16801,7.57138 -2.66833,8.2051 -2.73504,8.63871 -2.43484,6.67082 -2.50156,6.83759 -3.46883,8.27182 -2.96851,7.70479 -4.23597,10.43983 -3.6356,8.70542 -3.46882,8.10505 -3.23535,8.03833 -1.93454,5.43672 -1.73441,-0.13342 -8.905544,-0.20012 -5.937028,-0.66708 -4.536157,-1.20075 -4.202616,-2.16802 -2.801744,-2.66832 -2.468203,-4.20262 -2.001245,-4.13591 -1.901184,-4.96976 -0.833852,-4.0692 -0.200124,-4.26932 0.233478,-3.7023 1.334164,-3.43548 1.701059,-2.9018 1.701058,-3.40212 1.033977,-3.16864 0.667082,-2.93516 0.06671,-2.4682 -0.633727,-0.53367 -2.868452,2.60162 -4.102554,4.5028 -0.867206,0.56702 -0.266833,-1.53428 -0.400249,-7.53803 -0.433603,-6.9043 -0.967269,-6.1038 -0.933915,-3.16864 -1.000623,-1.36751 -0.967268,-0.10007 -0.700436,0.43361 -0.73379,1.83447 -0.600374,4.4361 -0.16677,7.07107 -0.133417,5.3033 -0.433603,3.36876 -0.800498,0.0333 -0.633728,-3.13528 -1.000623,-9.07231 -1.033977,-6.30393 -1.300809,-4.00249 -1.534289,-1.83447 -1.267455,-0.33355 -0.700436,1.03398 -0.73379,3.50218 0.06671,6.07045 0.366895,5.47007 0.466957,7.20448 -0.266833,1.10069 -0.933914,-1.56765 -0.667082,-5.57013 -0.73379,-4.16926 -0.73379,-3.76901 -1.000623,-2.96852 -0.933915,-1.6677 -1.134039,-0.76715 -0.867206,0.13342 -0.400249,1.6677 -0.100063,3.26871 0.133417,4.30267 0.233478,4.76964 0.333541,5.43672 -0.266832,0.96727 -0.700436,-0.53367 -0.73379,-3.43547 -0.767145,-4.20262 -1.200747,-3.36876 -1.033977,-2.20137 -1.067331,-0.73379 -0.500311,0.23348 -0.300187,1.40087 -0.133416,5.13653 0.233478,3.53553 0.500312,4.80299 0.800498,9.03896 0.533665,5.3033 0.233479,4.36939 -0.03335,4.56951 -0.300187,7.00436 -0.233479,10.27306 0.300187,4.33603 0.767144,5.3033 2.334787,5.6702 3.201993,4.80299 3.935783,4.80299 7.271192,6.07044 3.635597,2.66833 z"
       id="path4853"
       inkscape:connector-curvature="0" />
  </g>
  <g
     inkscape:groupmode="layer"
     id="layer4"
     inkscape:label="EarYellow"
     style="display:inline">
    <path
       style="fill:#ffbc7b;fill-opacity:1;stroke:none;stroke-width:1px;stroke-linecap:butt;stroke-linejoin:miter;stroke-opacity:1"
       d="m 130.91105,109.3693 c -5.80361,-4.40274 -10.93304,-12.005757 -13.34301,-17.522746 -5.45609,-12.490279 -4.60287,-29.164072 -4.40275,-33.033147 0.11458,-2.215152 -1.3623,-10.570326 -3.73623,-14.199294 3.90973,2.427319 8.6504,3.328708 11.84643,4.884188 5.74072,2.793963 12.93943,7.690631 17.9445,14.275553 5.07546,6.677532 9.67268,14.075427 11.87405,20.679538 2.20137,6.60411 1.54747,7.056042 1.54747,7.056042 l -7.28437,3.550559 -5.00311,3.535534 -4.0692,3.869073 -3.33541,3.86908 z"
       id="path4859"
       inkscape:connector-curvature="0"
       sodipodi:nodetypes="csccssscccccc" />
    <path
       style="fill:#ffbc7b;fill-opacity:1;stroke:none;stroke-width:1px;stroke-linecap:butt;stroke-linejoin:miter;stroke-opacity:1"
       d="m 291.88679,53.018868 c -15,15.471698 -23.67925,25.471698 -29.43396,36.509433 -5.4648,10.481669 -11.24448,21.311829 -32.26415,19.245279 -16.62011,-1.634 -21.22642,-18.962259 -21.22642,-18.962259 0,0 16.44171,-13.395601 26.13208,-20.000001 13.62574,-9.286517 23.08329,-12.109983 27.16981,-13.301886 13.5849,-3.962265 29.62264,-3.490566 29.62264,-3.490566 z"
       id="path30541"
       inkscape:connector-curvature="0"
       sodipodi:nodetypes="csscssc" />
  </g>
  <g
     inkscape:groupmode="layer"
     id="layer5"
     inkscape:label="NeseRed"
     style="display:inline">
    <path
       style="fill:#981f14;fill-opacity:1;stroke:none;stroke-width:1px;stroke-linecap:butt;stroke-linejoin:miter;stroke-opacity:1"
       d="m 96.792453,140.18868 -2.40566,-1.74528 -2.452831,-1.65095 -2.169811,-2.07547 -2.075472,-2.45283 -0.377358,-1.93396 0.20982,-1.1156 0.780746,-0.48818 1.462264,-0.28301 3.160377,0.14151 3.490566,0.47169 3.537736,0.61321 3.25472,0.66038 3.30188,0.70755 2.87736,0.6132 1.36793,0.42453 -0.75472,1.4151 -0.84906,1.60377 -1.03773,1.41509 -1.13208,1.46227 -1.17924,1.32075 -2.31132,1.32076 -2.45283,0.84905 -1.792457,0.61321 -1.933962,-1.46226 z"
       id="path4857"
       inkscape:connector-curvature="0" />
  </g>
  <g
     inkscape:groupmode="layer"
     id="layer2"
     inkscape:label="Contur"
     style="display:inline">
    <path
       style="fill:none;fill-opacity:1;stroke:#000000;stroke-width:1px;stroke-linecap:butt;stroke-linejoin:round;stroke-opacity:1"
       d="m 217.35849,322.26415 c -14.15095,-25.84905 -25.05601,-65.28496 -24.5283,-100.37736 1.13208,-75.28302 10.18867,-69.62264 9.81132,-109.0566 26.60377,11.88679 54.5283,5.66038 66.03774,-2.64151 11.50943,-8.30189 17.35849,-20.943397 18.67924,-32.452831 1.32076,-11.509434 14.79492,-28.442311 20.37736,-29.811321 3.20031,-0.784829 -48.07358,-5.738591 -63.10291,-0.430657 -18.33709,6.476141 -30.24782,19.716746 -34.23269,22.83967 -15.40174,12.070254 -19.70751,19.774944 -20.74328,19.555933 -2.63096,-0.556314 -20.65028,-1.290655 -29.02619,-0.03237 -18.36733,2.759256 -26.95052,15.112986 -29.0373,18.690346 -1.80617,3.09631 -5.44522,10.1452 -6.01125,22.59803"
       id="path4515"
       inkscape:connector-curvature="0"
       sodipodi:nodetypes="cscssssssssc" />
    <path
       style="fill:none;stroke:#000000;stroke-width:1px;stroke-linecap:butt;stroke-linejoin:miter;stroke-opacity:1"
       d="m 97.260536,320.93392 c 9.072324,-23.48129 36.250954,-85.24612 42.292994,-107.13335 1.20337,-4.3592 9.4711,-27.23684 7.20108,-34.94801 -0.57369,-1.94882 -6.50112,-3.24641 -12.53774,-6.41107 -18.50303,-9.70011 -30.34674,-18.89652 -34.421422,-29.61843 -0.660955,-1.7392 -14.802513,-8.84849 -12.274307,-13.60847 1.867829,-2.4015 17.951659,1.68649 22.839869,2.68451 4.55684,0.93036 19.59995,-0.47447 27.32469,-3.37727"
       id="path4517"
       inkscape:connector-curvature="0"
       sodipodi:nodetypes="csssscsc" />
    <path
       style="fill:none;stroke:#000000;stroke-width:1px;stroke-linecap:butt;stroke-linejoin:round;stroke-opacity:1"
       d="M 293.23717,52.758911 C 246.72318,52.6174 230.54349,74.24704 197.1894,98.795652"
       id="path4519"
       inkscape:connector-curvature="0"
       sodipodi:nodetypes="cc" />
    <path
       style="fill:none;stroke:#000000;stroke-width:1px;stroke-linecap:butt;stroke-linejoin:miter;stroke-opacity:1"
       d="m 167.92453,98.867924 c 0.18868,6.792456 4.90566,12.452826 9.0566,14.528306"
       id="path4805"
       inkscape:connector-curvature="0" />
    <path
       style="fill:none;stroke:#000000;stroke-width:1px;stroke-linecap:butt;stroke-linejoin:miter;stroke-opacity:1"
       d="m 150.18868,101.50943 c -2.45283,4.90566 -7.54717,4.52831 -10.75472,3.96227"
       id="path4807"
       inkscape:connector-curvature="0" />
    <path
       style="fill:none;stroke:#000000;stroke-width:1px;stroke-linecap:butt;stroke-linejoin:miter;stroke-opacity:1"
       d="m 166.41509,118.30189 c -3.39622,0.75471 -4.81131,2.54717 -4.62264,5.37736 4.0566,-2.8302 10.18869,1.22641 12.35849,8.96226"
       id="path4809"
       inkscape:connector-curvature="0"
       sodipodi:nodetypes="ccc" />
    <path
       style="fill:none;stroke:#000000;stroke-width:1px;stroke-linecap:butt;stroke-linejoin:miter;stroke-opacity:1"
       d="m 134.15094,117.73585 c 4.90566,-1.32076 7.73585,0.75472 8.49057,3.96226"
       id="path4811"
       inkscape:connector-curvature="0" />
    <path
       style="fill:none;stroke:#000000;stroke-width:1px;stroke-linecap:butt;stroke-linejoin:miter;stroke-opacity:1"
       d="m 166.60377,157.35849 c -13.1132,10 -30.45747,10.20012 -41.02351,10.3888"
       id="path4813"
       inkscape:connector-curvature="0"
       sodipodi:nodetypes="cc" />
    <path
       style="fill:none;stroke:#000000;stroke-width:1px;stroke-linecap:butt;stroke-linejoin:miter;stroke-opacity:1"
       d="m 130.9434,153.96226 c 4.15094,5.28302 6.22641,17.35849 5.66037,22.07548"
       id="path4815"
       inkscape:connector-curvature="0" />
    <path
       style="fill:none;stroke:#000000;stroke-width:1px;stroke-linecap:butt;stroke-linejoin:miter;stroke-opacity:1"
       d="m 125.4717,154.90566 c 0.37736,5.66038 0.37736,14.71698 -0.56604,19.0566"
       id="path4817"
       inkscape:connector-curvature="0" />
    <path
       style="fill:none;stroke:#000000;stroke-width:1px;stroke-linecap:butt;stroke-linejoin:miter;stroke-opacity:1"
       d="m 117.54717,155.84906 c 0.9434,4.71698 0.37736,10.75471 -0.37736,13.39622"
       id="path4819"
       inkscape:connector-curvature="0" />
    <path
       style="fill:none;stroke:#000000;stroke-width:1px;stroke-linecap:butt;stroke-linejoin:miter;stroke-opacity:1"
       d="m 106.98113,153.58491 c -3.58808,2.20231 -4.65273,4.56978 -5.28302,6.98113"
       id="path4821"
       inkscape:connector-curvature="0"
       sodipodi:nodetypes="cc" />
    <path
       style="fill:none;stroke:#000000;stroke-width:1px;stroke-linecap:butt;stroke-linejoin:miter;stroke-opacity:1"
       d="m 102.83019,148.67925 c -2.864524,1.41983 -4.528303,3.01886 -5.471699,4.90566"
       id="path4823"
       inkscape:connector-curvature="0"
       sodipodi:nodetypes="cc" />
    <path
       style="fill:none;stroke:#000000;stroke-width:1px;stroke-linecap:butt;stroke-linejoin:miter;stroke-opacity:1"
       d="m 99.245283,142.07547 c 5.660377,-1.88679 7.735847,-2.45283 11.509437,-10"
       id="path4825"
       inkscape:connector-curvature="0" />
    <path
       style="fill:none;stroke:#000000;stroke-width:1px;stroke-linecap:butt;stroke-linejoin:miter;stroke-opacity:1"
       d="m 152.64151,91.509434 c -1.32076,-12.830189 -15.88356,-37.797223 -35.56604,-43.679245 -7.72718,-2.309234 -8.85399,-5.827965 -7.47825,-3.51371 1.29542,2.179156 8.73303,11.079258 9.64806,17.758993"
       id="path4827"
       inkscape:connector-curvature="0"
       sodipodi:nodetypes="cssc" />
    <path
       style="fill:none;stroke:#000000;stroke-width:1px;stroke-linecap:butt;stroke-linejoin:miter;stroke-opacity:1"
       d="m 161.88679,89.622641 c 0.37736,-21.698113 -16.28844,-47.931866 -46.98113,-50.188679 -6.41509,-0.471698 -10.19503,-4.430014 -13.5849,-6.509434 -3.393371,-2.081565 -13.656319,-5.023248 -7.830194,1.320755 8.490564,9.245283 8.020754,9.25213 8.490564,24.716981 0.16913,5.567261 -4.696232,32.666934 1.03774,40 6.52555,8.345406 15.09434,14.245286 25.84905,14.999996"
       id="path4829"
       inkscape:connector-curvature="0"
       sodipodi:nodetypes="csssssc" />
    <path
       style="fill:none;stroke:#000000;stroke-width:1px;stroke-linecap:butt;stroke-linejoin:miter;stroke-opacity:1"
       d="m 108.46751,294.25064 c -13.475052,-0.13342 -23.881529,-0.13342 -29.218184,-8.80548 -6.392141,-10.38723 -8.138399,-20.67954 -4.669573,-26.68328 3.468826,-6.00373 6.070445,-14.14214 4.869697,-15.74313 -0.933914,-0.8005 -11.340392,11.27368 -13.274928,14.6758"
       id="path4831"
       inkscape:connector-curvature="0"
       sodipodi:nodetypes="csscc" />
    <path
       style="fill:none;stroke:#000000;stroke-width:1px;stroke-linecap:butt;stroke-linejoin:miter;stroke-opacity:1"
       d="m 64.77365,321.06733 c -8.405232,-6.00373 -16.059099,-12.13672 -19.812332,-22.54737 -2.861755,-7.93789 -1.000132,-23.44751 -1.134039,-32.68701 -0.133417,-9.20573 -3.577937,-34.15459 -1.667705,-34.15459 3.535534,0 5.003114,15.80984 5.870321,15.74313 1.19721,-0.0921 -2.134513,-21.76783 0.533665,-21.81357 4.669364,-0.0801 5.336654,22.34724 6.537402,22.21382 1.200747,-0.13341 -2.601505,-25.96854 1.067331,-26.01619 5.603413,-0.0728 5.412953,25.10035 6.804235,25.08228 1.935525,-0.0251 -0.13698,-23.12194 3.468826,-23.08104 3.734548,0.0424 4.536157,21.94699 4.536157,27.6839"
       id="path4833"
       inkscape:connector-curvature="0"
       sodipodi:nodetypes="csssssssssc" />
  </g>
</svg>
